<svg width="400" height="100" viewBox="0 0 400 100" fill="none" xmlns="http://www.w3.org/2000/svg">
<path d="M94.13 80.8501H92.54C92.24 80.8501 92.1 80.4401 92.34 80.2301L92.8 79.8301C93.19 79.4901 93.67 79.3101 94.17 79.3101H95.76C96.07 79.3101 96.2 79.7201 95.96 79.9301L95.5 80.3201C95.12 80.6701 94.63 80.8501 94.13 80.8501Z" fill="#54565A"/>
<path d="M96.21 78.62L94.62 78.73C94.32 78.75 94.15 78.35 94.38 78.13L94.81 77.7C95.17 77.34 95.64 77.12 96.14 77.09L97.72 76.98C98.02 76.96 98.19 77.36 97.97 77.58L97.54 78.01C97.18 78.37 96.71 78.59 96.21 78.62Z" fill="#54565A"/>
<path d="M98.13 76.2501L96.55 76.4701C96.25 76.5101 96.06 76.1201 96.27 75.8901L96.67 75.4401C97.01 75.0501 97.46 74.8001 97.96 74.7401L99.54 74.5201C99.84 74.4801 100.03 74.8701 99.83 75.1001L99.43 75.5601C99.08 75.9301 98.63 76.1801 98.13 76.2501Z" fill="#54565A"/>
<path d="M99.88 73.7501L98.32 74.0801C98.02 74.1501 97.81 73.7701 98 73.5201L98.36 73.0401C98.67 72.6301 99.11 72.3501 99.59 72.2501L101.15 71.9201C101.45 71.8601 101.66 72.2301 101.48 72.4801L101.11 72.9601C100.8 73.3701 100.36 73.6501 99.88 73.7501Z" fill="#54565A"/>
<path d="M101.44 71.14L99.91 71.58C99.62 71.66 99.37 71.31 99.54 71.04L99.87 70.54C100.15 70.11 100.57 69.8 101.05 69.66L102.58 69.22C102.87 69.13 103.12 69.49 102.95 69.76L102.62 70.27C102.34 70.69 101.92 71 101.44 71.14Z" fill="#54565A"/>
<path d="M102.83 68.4201L101.34 68.9601C101.05 69.0701 100.79 68.7301 100.94 68.4501L101.23 67.9201C101.48 67.4701 101.87 67.1301 102.34 66.9601L103.83 66.4201C104.12 66.3101 104.38 66.6601 104.23 66.9301L103.93 67.4601C103.69 67.9101 103.3 68.2501 102.83 68.4201Z" fill="#54565A"/>
<path d="M104.02 65.61L102.57 66.26C102.29 66.38 102 66.06 102.13 65.78L102.39 65.24C102.61 64.77 102.98 64.41 103.43 64.21L104.88 63.56C105.16 63.44 105.45 63.76 105.32 64.04L105.06 64.59C104.84 65.04 104.47 65.41 104.02 65.61Z" fill="#54565A"/>
<path d="M105.01 62.73L103.6 63.48C103.33 63.62 103.02 63.32 103.13 63.03L103.35 62.47C103.54 61.99 103.88 61.6 104.32 61.37L105.72 60.62C105.99 60.48 106.3 60.78 106.19 61.07L105.97 61.63C105.79 62.1 105.45 62.49 105.01 62.73Z" fill="#54565A"/>
<path d="M105.79 59.78L104.44 60.62C104.18 60.78 103.85 60.5 103.94 60.2L104.12 59.62C104.27 59.13 104.59 58.72 105.01 58.45L106.36 57.61C106.62 57.45 106.95 57.72 106.86 58.02L106.68 58.59C106.53 59.11 106.21 59.52 105.79 59.78Z" fill="#54565A"/>
<path d="M106.37 56.79L105.08 57.72C104.83 57.9 104.48 57.65 104.55 57.34L104.69 56.75C104.81 56.25 105.09 55.82 105.5 55.52L106.79 54.59C107.04 54.41 107.39 54.66 107.32 54.97L107.18 55.56C107.06 56.06 106.77 56.49 106.37 56.79Z" fill="#54565A"/>
<path d="M106.74 53.7601L105.52 54.7801C105.28 54.9801 104.92 54.7501 104.97 54.4401L105.07 53.8501C105.15 53.3401 105.4 52.8901 105.79 52.5701L107.01 51.5501C107.24 51.3601 107.61 51.5801 107.56 51.8901L107.47 52.4901C107.38 52.9901 107.12 53.4401 106.74 53.7601Z" fill="#54565A"/>
<path d="M106.9 50.72L105.76 51.82C105.54 52.03 105.16 51.83 105.19 51.52L105.24 50.92C105.29 50.41 105.51 49.94 105.87 49.59L107.01 48.49C107.23 48.28 107.61 48.48 107.58 48.79L107.53 49.39C107.48 49.9 107.26 50.37 106.9 50.72Z" fill="#54565A"/>
<path d="M106.84 47.67L105.78 48.85C105.57 49.08 105.18 48.9 105.19 48.59L105.2 47.99C105.21 47.48 105.4 46.99 105.73 46.62L106.79 45.44C106.99 45.21 107.39 45.39 107.38 45.7L107.37 46.3C107.36 46.81 107.17 47.3 106.84 47.67Z" fill="#54565A"/>
<path d="M106.57 44.63L105.59 45.88C105.4 46.12 104.99 45.98 104.98 45.66L104.95 45.06C104.93 44.55 105.08 44.05 105.39 43.66L106.37 42.41C106.56 42.17 106.96 42.32 106.98 42.63L107.01 43.23C107.03 43.74 106.88 44.24 106.57 44.63Z" fill="#54565A"/>
<path d="M106.09 41.62L105.2 42.94C105.03 43.19 104.61 43.07 104.57 42.76L104.5 42.16C104.44 41.65 104.56 41.14 104.84 40.73L105.73 39.42C105.9 39.17 106.32 39.28 106.35 39.6L106.42 40.2C106.49 40.7 106.37 41.21 106.09 41.62Z" fill="#54565A"/>
<path d="M105.4 38.65L104.61 40.02C104.46 40.28 104.03 40.19 103.97 39.89L103.86 39.3C103.76 38.8 103.85 38.29 104.1 37.85L104.89 36.48C105.04 36.21 105.47 36.3 105.53 36.61L105.64 37.2C105.73 37.7 105.65 38.22 105.4 38.65Z" fill="#54565A"/>
<path d="M104.51 35.73L103.81 37.16C103.68 37.43 103.25 37.37 103.17 37.07L103.01 36.49C102.88 35.99 102.92 35.48 103.14 35.03L103.84 33.6C103.97 33.33 104.4 33.39 104.48 33.69L104.64 34.27C104.77 34.77 104.72 35.29 104.51 35.73Z" fill="#54565A"/>
<path d="M103.41 32.89L102.81 34.36C102.69 34.64 102.26 34.61 102.16 34.31L101.96 33.74C101.79 33.25 101.8 32.74 101.99 32.27L102.59 30.8C102.71 30.52 103.14 30.55 103.24 30.84L103.44 31.41C103.61 31.91 103.6 32.43 103.41 32.89Z" fill="#54565A"/>
<path d="M102.12 30.13L101.63 31.64C101.54 31.93 101.11 31.93 100.98 31.64L100.75 31.08C100.55 30.61 100.53 30.09 100.68 29.61L101.17 28.1C101.26 27.81 101.7 27.81 101.82 28.1L102.06 28.65C102.25 29.14 102.27 29.65 102.12 30.13Z" fill="#54565A"/>
<path d="M100.64 27.46L100.25 29C100.18 29.3 99.74 29.33 99.6 29.05L99.33 28.51C99.1 28.05 99.04 27.54 99.16 27.05L99.55 25.51C99.62 25.21 100.06 25.18 100.2 25.46L100.47 26C100.7 26.46 100.76 26.98 100.64 27.46Z" fill="#54565A"/>
<path d="M98.97 24.91L98.69 26.47C98.64 26.77 98.21 26.83 98.05 26.56L97.74 26.04C97.48 25.6 97.38 25.09 97.47 24.6L97.74 23.03C97.79 22.73 98.22 22.67 98.38 22.94L98.69 23.46C98.96 23.91 99.06 24.42 98.97 24.91Z" fill="#54565A"/>
<path d="M97.13 22.48L96.96 24.06C96.93 24.36 96.51 24.45 96.33 24.2L95.99 23.71C95.7 23.29 95.56 22.79 95.62 22.29L95.79 20.71C95.82 20.4 96.25 20.31 96.42 20.57L96.77 21.07C97.06 21.48 97.19 21.98 97.13 22.48Z" fill="#54565A"/>
<path d="M95.13 20.18L95.08 21.77C95.07 22.07 94.65 22.19 94.46 21.95L94.08 21.48C93.75 21.08 93.59 20.59 93.61 20.09L93.67 18.5C93.68 18.19 94.1 18.08 94.29 18.32L94.67 18.79C94.98 19.19 95.15 19.68 95.13 20.18Z" fill="#54565A"/>
<path d="M92.97 18.02L93.02 19.61C93.03 19.92 92.62 20.06 92.41 19.83L92 19.39C91.65 19.01 91.45 18.53 91.43 18.04L91.37 16.45C91.36 16.15 91.77 16 91.98 16.23L92.39 16.67C92.75 17.05 92.95 17.53 92.97 18.02Z" fill="#54565A"/>
<path d="M90.67 16.03L90.84 17.61C90.87 17.91 90.48 18.09 90.25 17.88L89.81 17.47C89.44 17.12 89.2 16.65 89.15 16.16L88.98 14.58C88.95 14.28 89.34 14.1 89.57 14.31L90.01 14.72C90.38 15.07 90.62 15.53 90.67 16.03Z" fill="#54565A"/>
<path d="M88.23 14.19L88.5 15.76C88.55 16.06 88.17 16.26 87.93 16.07L87.46 15.69C87.06 15.36 86.8 14.92 86.71 14.43L86.44 12.87C86.39 12.57 86.77 12.36 87.01 12.56L87.48 12.94C87.88 13.26 88.14 13.7 88.23 14.19Z" fill="#54565A"/>
<path d="M85.67 12.53L86.06 14.07C86.13 14.37 85.77 14.6 85.51 14.42L85.02 14.07C84.6 13.77 84.3 13.35 84.18 12.87L83.79 11.33C83.72 11.03 84.08 10.8 84.34 10.98L84.83 11.33C85.25 11.63 85.55 12.05 85.67 12.53Z" fill="#54565A"/>
<path d="M83 11.06L83.49 12.57C83.58 12.86 83.23 13.12 82.97 12.95L82.45 12.64C82.01 12.37 81.69 11.97 81.53 11.5L81.04 9.98999C80.95 9.69999 81.3 9.43999 81.56 9.60999L82.08 9.91999C82.52 10.18 82.85 10.58 83 11.06Z" fill="#54565A"/>
<path d="M80.24 9.78L80.84 11.25C80.96 11.53 80.62 11.81 80.34 11.67L79.81 11.4C79.35 11.17 79 10.78 78.81 10.32L78.21 8.85C78.1 8.57 78.43 8.29 78.7 8.43L79.24 8.71C79.7 8.93 80.05 9.31 80.24 9.78Z" fill="#54565A"/>
<path d="M77.39 8.69005L78.09 10.12C78.22 10.39 77.91 10.69 77.63 10.57L77.07 10.33C76.6 10.13 76.22 9.77005 76 9.32005L75.3 7.89005C75.17 7.62005 75.48 7.32005 75.77 7.44005L76.32 7.68005C76.79 7.88005 77.17 8.24005 77.39 8.69005Z" fill="#54565A"/>
<path d="M74.47 7.8L75.27 9.18C75.42 9.44 75.13 9.77 74.84 9.66L74.27 9.46C73.78 9.29 73.38 8.96 73.13 8.53L72.34 7.15C72.19 6.88 72.48 6.56 72.77 6.67L73.34 6.87C73.82 7.04 74.22 7.36 74.47 7.8Z" fill="#54565A"/>
<path d="M71.5 7.11005L72.39 8.43005C72.56 8.69005 72.29 9.03005 71.99 8.94005L71.41 8.78005C70.91 8.64005 70.49 8.35005 70.21 7.93005L69.32 6.61005C69.15 6.36005 69.41 6.02005 69.72 6.10005L70.3 6.26005C70.79 6.40005 71.22 6.70005 71.5 7.11005Z" fill="#54565A"/>
<path d="M68.48 6.64L69.46 7.89C69.65 8.13 69.41 8.49 69.1 8.43L68.51 8.31C68 8.21 67.56 7.94 67.25 7.55L66.28 6.3C66.09 6.06 66.33 5.7 66.64 5.76L67.23 5.88C67.73 5.98 68.18 6.24 68.48 6.64Z" fill="#54565A"/>
<path d="M65.45 6.38002L66.51 7.56002C66.71 7.79002 66.5 8.16002 66.19 8.12002L65.59 8.05002C65.08 7.98002 64.62 7.75002 64.28 7.38002L63.22 6.20002C63.02 5.97002 63.23 5.60002 63.54 5.64002L64.14 5.71002C64.65 5.77002 65.11 6.01002 65.45 6.38002Z" fill="#54565A"/>
<path d="M62.4 6.32999L63.54 7.43999C63.76 7.64999 63.57 8.03999 63.26 8.01999L62.66 7.98999C62.15 7.95999 61.67 7.75999 61.31 7.40999L60.17 6.30999C59.95 6.09999 60.14 5.70999 60.45 5.72999L61.05 5.75999C61.56 5.77999 62.04 5.97999 62.4 6.32999Z" fill="#54565A"/>
<path d="M59.35 6.49L60.57 7.51C60.8 7.7 60.64 8.11 60.33 8.11L59.73 8.12C59.22 8.13 58.73 7.96 58.35 7.64L57.13 6.62C56.9 6.42 57.06 6.02 57.37 6.02L57.97 6.01C58.48 6 58.97 6.17 59.35 6.49Z" fill="#54565A"/>
<path d="M56.32 6.87L57.61 7.8C57.86 7.98 57.72 8.39 57.41 8.42L56.81 8.47C56.3 8.51 55.8 8.38 55.39 8.09L54.11 7.16C53.86 6.98 53.99 6.57 54.31 6.54L54.91 6.49C55.42 6.44 55.92 6.57 56.32 6.87Z" fill="#54565A"/>
<path d="M53.33 7.45002L54.68 8.29002C54.94 8.45002 54.84 8.87002 54.52 8.92002L53.92 9.01002C53.41 9.09002 52.9 8.99002 52.48 8.72002L51.13 7.88002C50.87 7.72002 50.98 7.30002 51.28 7.25002L51.88 7.16002C52.4 7.08002 52.91 7.18002 53.33 7.45002Z" fill="#54565A"/>
<path d="M50.39 8.24004L51.79 8.98004C52.06 9.13004 51.99 9.55004 51.68 9.62004L51.09 9.75004C50.59 9.86004 50.07 9.80004 49.63 9.56004L48.22 8.82004C47.95 8.68004 48.03 8.25004 48.33 8.18004L48.92 8.04004C49.43 7.94004 49.94 8.01004 50.39 8.24004Z" fill="#54565A"/>
<path d="M47.5 9.23999L48.95 9.87999C49.23 10.01 49.19 10.44 48.89 10.53L48.31 10.7C47.82 10.85 47.3 10.82 46.84 10.62L45.39 9.96999C45.11 9.83999 45.16 9.40999 45.46 9.31999L46.04 9.14999C46.53 9.00999 47.05 9.02999 47.5 9.23999Z" fill="#54565A"/>
<path d="M44.7 10.43L46.19 10.97C46.48 11.08 46.46 11.51 46.17 11.62L45.61 11.83C45.13 12.01 44.61 12.02 44.14 11.85L42.65 11.31C42.37 11.2 42.38 10.77 42.67 10.66L43.23 10.45C43.71 10.27 44.23 10.26 44.7 10.43Z" fill="#54565A"/>
<path d="M41.98 11.82L43.51 12.26C43.8 12.34 43.82 12.78 43.54 12.91L42.99 13.16C42.52 13.38 42.01 13.42 41.53 13.28L40 12.84C39.71 12.76 39.69 12.32 39.98 12.19L40.53 11.94C40.98 11.72 41.5 11.68 41.98 11.82Z" fill="#54565A"/>
<path d="M39.37 13.39L40.93 13.72C41.23 13.78 41.28 14.21 41 14.37L40.47 14.66C40.02 14.91 39.51 14.99 39.02 14.88L37.47 14.55C37.17 14.49 37.12 14.06 37.4 13.9L37.93 13.61C38.37 13.37 38.88 13.29 39.37 13.39Z" fill="#54565A"/>
<path d="M36.87 15.14L38.44 15.36C38.74 15.4 38.82 15.83 38.56 16L38.05 16.33C37.62 16.61 37.11 16.72 36.62 16.65L35.04 16.43C34.74 16.39 34.66 15.96 34.93 15.79L35.44 15.46C35.87 15.19 36.38 15.07 36.87 15.14Z" fill="#54565A"/>
<path d="M34.5 17.06L36.08 17.17C36.38 17.19 36.49 17.61 36.24 17.8L35.76 18.16C35.35 18.47 34.85 18.62 34.36 18.58L32.78 18.47C32.47 18.45 32.37 18.03 32.62 17.84L33.1 17.48C33.51 17.18 34 17.03 34.5 17.06Z" fill="#54565A"/>
<path d="M32.27 19.14H33.86C34.16 19.14 34.3 19.55 34.06 19.76L33.6 20.15C33.21 20.49 32.73 20.67 32.23 20.67H30.64C30.33 20.67 30.2 20.26 30.44 20.05L30.9 19.66C31.29 19.33 31.77 19.14 32.27 19.14Z" fill="#54565A"/>
<path d="M30.2 21.38L31.79 21.27C32.09 21.25 32.26 21.65 32.04 21.87L31.61 22.29C31.25 22.65 30.78 22.87 30.28 22.9L28.69 23.01C28.39 23.03 28.22 22.63 28.44 22.41L28.87 21.99C29.23 21.63 29.7 21.41 30.2 21.38Z" fill="#54565A"/>
<path d="M28.28 23.75L29.85 23.53C30.15 23.49 30.34 23.88 30.13 24.11L29.73 24.56C29.39 24.95 28.94 25.2 28.44 25.26L26.87 25.48C26.57 25.52 26.38 25.13 26.58 24.9L26.98 24.45C27.33 24.07 27.78 23.81 28.28 23.75Z" fill="#54565A"/>
<path d="M26.53 26.25L28.08 25.92C28.38 25.86 28.6 26.23 28.41 26.48L28.05 26.96C27.74 27.37 27.3 27.65 26.81 27.75L25.26 28.08C24.96 28.14 24.75 27.77 24.93 27.52L25.3 27.04C25.61 26.63 26.05 26.35 26.53 26.25Z" fill="#54565A"/>
<path d="M24.96 28.86L26.49 28.42C26.78 28.34 27.03 28.7 26.86 28.96L26.53 29.47C26.25 29.9 25.83 30.21 25.35 30.35L23.82 30.79C23.53 30.87 23.28 30.52 23.45 30.25L23.78 29.74C24.07 29.31 24.48 29 24.96 28.86Z" fill="#54565A"/>
<path d="M23.58 31.5801L25.07 31.0401C25.35 30.9301 25.62 31.2801 25.47 31.5501L25.18 32.0801C24.93 32.5301 24.54 32.8701 24.07 33.0401L22.58 33.5901C22.29 33.6901 22.02 33.3501 22.18 33.0801L22.48 32.5501C22.72 32.0901 23.11 31.7501 23.58 31.5801Z" fill="#54565A"/>
<path d="M22.39 34.39L23.84 33.75C24.12 33.63 24.41 33.95 24.28 34.23L24.02 34.78C23.8 35.25 23.43 35.61 22.98 35.81L21.53 36.46C21.25 36.58 20.96 36.26 21.1 35.98L21.36 35.43C21.57 34.96 21.94 34.59 22.39 34.39Z" fill="#54565A"/>
<path d="M21.4 37.27L22.81 36.52C23.08 36.38 23.39 36.68 23.28 36.97L23.06 37.53C22.87 38.01 22.53 38.4 22.09 38.63L20.69 39.38C20.42 39.52 20.11 39.22 20.22 38.93L20.43 38.37C20.62 37.9 20.96 37.51 21.4 37.27Z" fill="#54565A"/>
<path d="M20.62 40.2201L21.97 39.3801C22.23 39.2201 22.56 39.5001 22.47 39.8001L22.29 40.3801C22.14 40.8701 21.82 41.2801 21.4 41.5501L20.05 42.3901C19.79 42.5501 19.46 42.2801 19.55 41.9701L19.73 41.4001C19.88 40.8901 20.19 40.4801 20.62 40.2201Z" fill="#54565A"/>
<path d="M20.04 43.2101L21.33 42.2701C21.58 42.0901 21.93 42.3501 21.86 42.6501L21.72 43.2401C21.6 43.7401 21.32 44.1701 20.91 44.4701L19.63 45.4001C19.38 45.5801 19.03 45.3301 19.1 45.0201L19.24 44.4301C19.35 43.9401 19.63 43.5101 20.04 43.2101Z" fill="#54565A"/>
<path d="M19.67 46.24L20.89 45.22C21.12 45.02 21.49 45.25 21.44 45.56L21.34 46.16C21.26 46.67 21.01 47.12 20.62 47.44L19.4 48.46C19.17 48.66 18.8 48.43 18.85 48.12L18.94 47.52C19.03 47.01 19.29 46.56 19.67 46.24Z" fill="#54565A"/>
<path d="M19.51 49.28L20.65 48.17C20.87 47.96 21.25 48.16 21.22 48.48L21.17 49.08C21.12 49.59 20.9 50.06 20.54 50.41L19.4 51.51C19.18 51.72 18.8 51.52 18.83 51.21L18.89 50.61C18.93 50.1 19.15 49.63 19.51 49.28Z" fill="#54565A"/>
<path d="M19.57 52.33L20.63 51.15C20.83 50.93 21.23 51.1 21.22 51.41L21.21 52.01C21.2 52.52 21.01 53.01 20.68 53.38L19.62 54.56C19.42 54.79 19.02 54.61 19.03 54.3L19.04 53.7C19.05 53.18 19.23 52.7 19.57 52.33Z" fill="#54565A"/>
<path d="M19.84 55.3701L20.82 54.1201C21.01 53.8801 21.41 54.0301 21.43 54.3401L21.46 54.9501C21.48 55.4601 21.33 55.9601 21.02 56.3501L20.04 57.6001C19.85 57.8401 19.44 57.6901 19.43 57.3801L19.4 56.7801C19.38 56.2601 19.53 55.7601 19.84 55.3701Z" fill="#54565A"/>
<path d="M20.32 58.3801L21.21 57.0601C21.38 56.8001 21.8 56.9201 21.83 57.2301L21.9 57.8301C21.96 58.3401 21.84 58.8401 21.56 59.2601L20.67 60.5801C20.5 60.8301 20.08 60.7101 20.05 60.4001L19.98 59.8001C19.92 59.3001 20.04 58.7901 20.32 58.3801Z" fill="#54565A"/>
<path d="M21.01 61.35L21.8 59.97C21.95 59.71 22.38 59.8 22.44 60.1L22.55 60.69C22.64 61.19 22.56 61.71 22.31 62.14L21.52 63.52C21.37 63.78 20.94 63.69 20.88 63.39L20.77 62.8C20.67 62.29 20.76 61.78 21.01 61.35Z" fill="#54565A"/>
<path d="M21.9 64.26L22.6 62.83C22.73 62.56 23.16 62.62 23.24 62.92L23.39 63.5C23.52 64 23.47 64.51 23.26 64.96L22.56 66.39C22.43 66.66 22 66.6 21.92 66.3L21.77 65.72C21.63 65.23 21.68 64.71 21.9 64.26Z" fill="#54565A"/>
<path d="M23 67.11L23.59 65.64C23.71 65.36 24.14 65.38 24.24 65.68L24.44 66.25C24.61 66.74 24.6 67.25 24.41 67.72L23.81 69.19C23.7 69.47 23.26 69.44 23.16 69.15L22.96 68.58C22.8 68.09 22.81 67.57 23 67.11Z" fill="#54565A"/>
<path d="M24.29 69.8701L24.78 68.3601C24.87 68.0701 25.31 68.0701 25.43 68.3601L25.66 68.9201C25.86 69.3901 25.88 69.9101 25.73 70.3801L25.24 71.8901C25.14 72.1801 24.71 72.1801 24.59 71.8901L24.36 71.3301C24.16 70.8601 24.14 70.3501 24.29 69.8701Z" fill="#54565A"/>
<path d="M25.77 72.54L26.16 71C26.23 70.7 26.67 70.67 26.81 70.95L27.08 71.49C27.31 71.95 27.37 72.46 27.25 72.95L26.86 74.49C26.79 74.78 26.36 74.81 26.21 74.53L25.94 73.99C25.71 73.54 25.65 73.02 25.77 72.54Z" fill="#54565A"/>
<path d="M27.43 75.09L27.71 73.53C27.76 73.23 28.19 73.17 28.35 73.44L28.66 73.96C28.92 74.4 29.02 74.91 28.93 75.4L28.66 76.97C28.61 77.27 28.18 77.33 28.02 77.06L27.71 76.54C27.45 76.09 27.35 75.58 27.43 75.09Z" fill="#54565A"/>
<path d="M29.27 77.52L29.44 75.94C29.47 75.64 29.89 75.55 30.08 75.8L30.42 76.3C30.72 76.72 30.85 77.22 30.79 77.72L30.62 79.3C30.59 79.6 30.16 79.69 29.99 79.44L29.64 78.94C29.35 78.52 29.22 78.02 29.27 77.52Z" fill="#54565A"/>
<path d="M31.28 79.8201L31.34 78.2301C31.35 77.9301 31.77 77.8001 31.96 78.0501L32.34 78.52C32.66 78.92 32.83 79.4101 32.81 79.9101L32.75 81.5001C32.74 81.8001 32.32 81.9201 32.13 81.6801L31.75 81.2101C31.43 80.8101 31.26 80.3201 31.28 79.8201Z" fill="#54565A"/>
<path d="M33.44 81.9801L33.38 80.3901C33.37 80.0801 33.78 79.9401 33.99 80.1701L34.4 80.6101C34.75 80.9901 34.95 81.4701 34.97 81.9601L35.02 83.5501C35.03 83.8601 34.62 84.0101 34.41 83.7701L34 83.3301C33.66 82.9501 33.45 82.4701 33.44 81.9801Z" fill="#54565A"/>
<path d="M35.74 83.97L35.57 82.39C35.54 82.09 35.93 81.91 36.16 82.12L36.6 82.53C36.98 82.88 37.21 83.34 37.26 83.84L37.43 85.42C37.46 85.72 37.07 85.9 36.84 85.69L36.4 85.28C36.02 84.93 35.79 84.47 35.74 83.97Z" fill="#54565A"/>
<path d="M38.18 85.81L37.9 84.25C37.85 83.95 38.23 83.74 38.47 83.94L38.94 84.32C39.34 84.65 39.6 85.09 39.69 85.58L39.97 87.14C40.02 87.44 39.64 87.64 39.4 87.45L38.93 87.07C38.53 86.74 38.26 86.3 38.18 85.81Z" fill="#54565A"/>
<path d="M40.74 87.4701L40.36 85.9301C40.29 85.6301 40.65 85.4001 40.91 85.5801L41.4 85.9301C41.82 86.2301 42.12 86.6501 42.24 87.1401L42.63 88.6801C42.7 88.9801 42.34 89.2101 42.08 89.0201L41.59 88.6801C41.15 88.3701 40.86 87.9501 40.74 87.4701Z" fill="#54565A"/>
<path d="M43.41 88.94L42.92 87.43C42.83 87.14 43.17 86.88 43.44 87.05L43.96 87.36C44.4 87.63 44.72 88.03 44.88 88.5L45.37 90.01C45.47 90.3 45.11 90.55 44.84 90.39L44.33 90.08C43.89 89.82 43.56 89.41 43.41 88.94Z" fill="#54565A"/>
<path d="M46.17 90.22L45.57 88.75C45.46 88.47 45.79 88.19 46.07 88.33L46.61 88.6C47.07 88.83 47.42 89.22 47.61 89.68L48.2 91.15C48.32 91.43 47.99 91.71 47.71 91.57L47.17 91.29C46.71 91.07 46.36 90.69 46.17 90.22Z" fill="#54565A"/>
<path d="M49.02 91.31L48.32 89.88C48.19 89.61 48.49 89.3 48.78 89.43L49.33 89.67C49.8 89.87 50.18 90.23 50.4 90.68L51.1 92.11C51.23 92.38 50.92 92.68 50.63 92.56L50.08 92.32C49.62 92.12 49.24 91.76 49.02 91.31Z" fill="#54565A"/>
<path d="M51.94 92.2L51.15 90.82C51 90.55 51.28 90.23 51.58 90.34L52.15 90.54C52.64 90.71 53.04 91.04 53.29 91.47L54.08 92.85C54.23 93.12 53.94 93.44 53.65 93.33L53.08 93.13C52.59 92.96 52.19 92.63 51.94 92.2Z" fill="#54565A"/>
<path d="M54.91 92.8801L54.02 91.5701C53.85 91.3101 54.12 90.9701 54.42 91.0601L55 91.2101C55.5 91.3401 55.92 91.6401 56.2 92.0601L57.09 93.3801C57.26 93.6301 56.99 93.9701 56.69 93.8901L56.11 93.7301C55.61 93.6001 55.19 93.3001 54.91 92.8801Z" fill="#54565A"/>
<path d="M57.92 93.36L56.94 92.11C56.75 91.87 56.99 91.51 57.3 91.57L57.89 91.69C58.4 91.79 58.84 92.06 59.15 92.45L60.13 93.7C60.32 93.94 60.08 94.3 59.77 94.24L59.18 94.12C58.67 94.02 58.23 93.76 57.92 93.36Z" fill="#54565A"/>
<path d="M60.96 93.6201L59.9 92.4401C59.7 92.2101 59.91 91.8401 60.22 91.8801L60.82 91.9501C61.33 92.0101 61.79 92.2501 62.13 92.6201L63.19 93.8001C63.39 94.0301 63.18 94.4001 62.87 94.3601L62.27 94.2801C61.76 94.2301 61.3 93.9901 60.96 93.6201Z" fill="#54565A"/>
<path d="M64.01 93.67L62.87 92.56C62.65 92.35 62.84 91.96 63.15 91.98L63.75 92.01C64.26 92.04 64.74 92.24 65.1 92.59L66.24 93.7C66.46 93.91 66.27 94.3 65.96 94.28L65.36 94.25C64.85 94.22 64.37 94.02 64.01 93.67Z" fill="#54565A"/>
<path d="M67.06 93.5101L65.84 92.4901C65.61 92.2901 65.77 91.8901 66.08 91.8901L66.68 91.8801C67.19 91.8701 67.68 92.0401 68.07 92.3601L69.29 93.3801C69.52 93.5701 69.36 93.9801 69.05 93.9801L68.45 93.9901C67.93 94.0001 67.44 93.8301 67.06 93.5101Z" fill="#54565A"/>
<path d="M70.09 93.14L68.8 92.2C68.56 92.02 68.69 91.61 69 91.58L69.6 91.53C70.11 91.49 70.61 91.62 71.01 91.92L72.3 92.85C72.55 93.03 72.41 93.44 72.1 93.47L71.5 93.52C70.99 93.56 70.49 93.43 70.09 93.14Z" fill="#54565A"/>
<path d="M73.08 92.55L71.73 91.7C71.47 91.54 71.57 91.12 71.88 91.07L72.48 90.98C72.99 90.9 73.5 91 73.92 91.27L75.27 92.11C75.53 92.27 75.42 92.69 75.11 92.74L74.51 92.83C74.01 92.92 73.5 92.81 73.08 92.55Z" fill="#54565A"/>
<path d="M76.02 91.76L74.62 91.02C74.35 90.87 74.43 90.45 74.73 90.38L75.32 90.25C75.82 90.14 76.34 90.2 76.78 90.43L78.18 91.18C78.45 91.32 78.38 91.75 78.07 91.82L77.48 91.95C76.98 92.06 76.46 91.99 76.02 91.76Z" fill="#54565A"/>
<path d="M78.91 90.76L77.46 90.11C77.18 89.99 77.22 89.56 77.52 89.46L78.1 89.29C78.59 89.14 79.11 89.17 79.57 89.37L81.02 90.02C81.3 90.15 81.25 90.58 80.96 90.67L80.38 90.84C79.88 90.99 79.36 90.97 78.91 90.76Z" fill="#54565A"/>
<path d="M81.71 89.57L80.22 89.02C79.93 88.92 79.95 88.48 80.24 88.37L80.81 88.16C81.29 87.98 81.81 87.97 82.28 88.14L83.77 88.68C84.06 88.78 84.04 89.22 83.75 89.33L83.18 89.54C82.7 89.73 82.18 89.74 81.71 89.57Z" fill="#54565A"/>
<path d="M84.43 88.18L82.9 87.74C82.61 87.66 82.59 87.22 82.87 87.09L83.42 86.84C83.89 86.62 84.4 86.58 84.88 86.72L86.41 87.16C86.7 87.24 86.72 87.68 86.43 87.81L85.88 88.06C85.43 88.28 84.91 88.32 84.43 88.18Z" fill="#54565A"/>
<path d="M87.04 86.61L85.49 86.28C85.19 86.22 85.14 85.79 85.42 85.63L85.95 85.34C86.4 85.09 86.91 85.01 87.4 85.12L88.95 85.45C89.25 85.51 89.29 85.94 89.02 86.1L88.49 86.39C88.04 86.63 87.53 86.71 87.04 86.61Z" fill="#54565A"/>
<path d="M89.54 84.86L87.96 84.64C87.66 84.6 87.58 84.17 87.85 84L88.36 83.67C88.79 83.39 89.3 83.27 89.79 83.34L91.36 83.56C91.66 83.6 91.74 84.03 91.48 84.2L90.97 84.53C90.54 84.81 90.03 84.93 89.54 84.86Z" fill="#54565A"/>
<path d="M91.91 82.9401L90.33 82.8301C90.03 82.8101 89.92 82.39 90.17 82.2L90.65 81.84C91.06 81.53 91.56 81.38 92.05 81.42L93.64 81.53C93.95 81.55 94.05 81.9701 93.8 82.1601L93.31 82.52C92.9 82.82 92.4 82.9701 91.91 82.9401Z" fill="#54565A"/>
<path fill-rule="evenodd" clip-rule="evenodd" d="M59.46 14.99L61.78 13.32L60.88 10.58L63.18 12.27L65.51 10.57L64.62 13.28L66.95 14.97L64.09 14.96L63.21 17.7L62.34 14.98L59.46 14.99Z" fill="#54565A"/>
<path fill-rule="evenodd" clip-rule="evenodd" d="M46.34 19.09L47.85 16.66L45.97 14.47L48.75 15.15L50.25 12.69L50.46 15.54L53.26 16.2L50.62 17.29L50.85 20.16L49 17.98L46.34 19.09Z" fill="#54565A"/>
<path fill-rule="evenodd" clip-rule="evenodd" d="M35.79 27.89L36.26 25.07L33.68 23.77L36.51 23.33L36.95 20.49L38.24 23.04L41.09 22.58L39.05 24.59L40.37 27.16L37.83 25.85L35.79 27.89Z" fill="#54565A"/>
<path fill-rule="evenodd" clip-rule="evenodd" d="M29.42 40.06L28.77 37.28L25.89 37.06L28.34 35.58L27.66 32.78L29.82 34.64L32.28 33.13L31.17 35.77L33.37 37.64L30.52 37.4L29.42 40.06Z" fill="#54565A"/>
<path fill-rule="evenodd" clip-rule="evenodd" d="M28.19 53.75L26.52 51.43L23.78 52.32L25.47 50.02L23.77 47.69L26.49 48.59L28.18 46.25L28.16 49.11L30.91 49.99L28.18 50.87L28.19 53.75Z" fill="#54565A"/>
<path fill-rule="evenodd" clip-rule="evenodd" d="M32.29 66.8601L29.86 65.3601L27.67 67.2301L28.35 64.4601L25.89 62.9601L28.74 62.7501L29.41 59.9401L30.49 62.5901L33.36 62.3501L31.18 64.2001L32.29 66.8601Z" fill="#54565A"/>
<path fill-rule="evenodd" clip-rule="evenodd" d="M41.1 77.41L38.27 76.95L36.97 79.52L36.54 76.69L33.69 76.25L36.24 74.96L35.78 72.12L37.8 74.15L40.36 72.83L39.05 75.38L41.1 77.41Z" fill="#54565A"/>
<path fill-rule="evenodd" clip-rule="evenodd" d="M53.27 83.78L50.48 84.44L50.27 87.31L48.78 84.87L45.98 85.55L47.85 83.38L46.34 80.93L48.97 82.03L50.84 79.84L50.6 82.69L53.27 83.78Z" fill="#54565A"/>
<path fill-rule="evenodd" clip-rule="evenodd" d="M66.95 85.01L64.63 86.68L65.53 89.42L63.22 87.73L60.9 89.43L61.79 86.72L59.46 85.03L62.31 85.04L63.2 82.3L64.07 85.02L66.95 85.01Z" fill="#54565A"/>
<path fill-rule="evenodd" clip-rule="evenodd" d="M80.07 80.91L78.56 83.34L80.44 85.53L77.66 84.85L76.16 87.31L75.95 84.46L73.15 83.8L75.79 82.71L75.56 79.84L77.41 82.02L80.07 80.91Z" fill="#54565A"/>
<path fill-rule="evenodd" clip-rule="evenodd" d="M90.61 72.11L90.15 74.93L92.72 76.23L89.9 76.67L89.45 79.51L88.17 76.96L85.32 77.42L87.35 75.41L86.04 72.84L88.58 74.15L90.61 72.11Z" fill="#54565A"/>
<path fill-rule="evenodd" clip-rule="evenodd" d="M96.99 59.9401L97.64 62.7201L100.51 62.9401L98.07 64.4201L98.75 67.2201L96.58 65.3601L94.13 66.8701L95.24 64.2301L93.04 62.3601L95.89 62.6001L96.99 59.9401Z" fill="#54565A"/>
<path fill-rule="evenodd" clip-rule="evenodd" d="M98.22 46.25L99.89 48.57L102.63 47.68L100.93 49.98L102.63 52.31L99.92 51.41L98.23 53.75L98.24 50.89L95.5 50.01L98.22 49.13V46.25Z" fill="#54565A"/>
<path fill-rule="evenodd" clip-rule="evenodd" d="M94.12 33.14L96.55 34.64L98.74 32.77L98.05 35.54L100.52 37.04L97.66 37.25L97 40.06L95.92 37.41L93.04 37.65L95.23 35.8L94.12 33.14Z" fill="#54565A"/>
<path fill-rule="evenodd" clip-rule="evenodd" d="M85.31 22.59L88.13 23.05L89.44 20.48L89.87 23.31L92.72 23.75L90.16 25.04L90.62 27.88L88.61 25.85L86.04 27.17L87.35 24.62L85.31 22.59Z" fill="#54565A"/>
<path fill-rule="evenodd" clip-rule="evenodd" d="M73.14 16.22L75.92 15.56L76.14 12.69L77.62 15.13L80.43 14.45L78.56 16.62L80.07 19.07L77.43 17.97L75.57 20.16L75.81 17.31L73.14 16.22Z" fill="#54565A"/>
<path d="M63.2 19.56C46.42 19.56 32.77 33.21 32.77 50C32.77 66.78 46.42 80.43 63.2 80.43C79.98 80.43 93.64 66.78 93.64 50C93.64 33.22 79.99 19.56 63.2 19.56ZM63.2 79.75C46.8 79.75 33.45 66.41 33.45 50C33.45 33.59 46.8 20.25 63.2 20.25C79.6 20.25 92.96 33.59 92.96 50C92.96 66.41 79.61 79.75 63.2 79.75Z" fill="#54565A"/>
<path d="M63.2 22.37C47.94 22.37 35.57 34.74 35.57 50C35.57 65.26 47.94 77.63 63.2 77.63C78.46 77.63 90.83 65.26 90.83 50C90.84 34.74 78.46 22.37 63.2 22.37ZM68.52 40.51L70.1 41.58C70.31 41.7 70.56 41.7 70.77 41.58L72.4 40.79C72.66 40.65 72.99 40.71 73.19 40.93C73.67 41.44 74.12 42 74.51 42.58C74.67 42.83 74.64 43.15 74.45 43.37L73.25 44.74C73.09 44.92 73.04 45.17 73.12 45.4L73.74 47.2C73.82 47.43 74.02 47.59 74.26 47.63L76.06 47.93C76.35 47.98 76.58 48.21 76.61 48.51C76.68 48.86 76.68 49.18 76.68 49.55V50.63C76.66 50.92 76.45 51.17 76.16 51.25L74.39 51.65C74.16 51.71 73.97 51.88 73.9 52.11L73.36 53.92C73.3 54.15 73.36 54.4 73.53 54.58L74.82 55.88C75.03 56.09 75.07 56.41 74.93 56.67C74.57 57.29 74.17 57.88 73.72 58.44C73.53 58.67 73.2 58.75 72.93 58.62L71.25 57.9C71.03 57.8 70.77 57.84 70.58 57.98L69.07 59.14C68.88 59.29 68.78 59.53 68.82 59.77L69.09 61.58C69.14 61.87 68.99 62.16 68.72 62.27C68.07 62.6 67.4 62.87 66.71 63.09C66.42 63.16 66.13 63.03 65.98 62.78L65.05 61.2C64.93 60.99 64.7 60.87 64.46 60.88L62.55 60.94C62.31 60.94 62.09 61.08 61.98 61.3L61.13 62.88C61 63.14 60.71 63.28 60.42 63.23C59.72 63.08 59.03 62.88 58.37 62.62C58.1 62.51 57.93 62.24 57.96 61.95L58.13 60.13C58.15 59.89 58.05 59.66 57.85 59.52L56.27 58.45C56.08 58.32 55.82 58.3 55.61 58.4L53.98 59.19C53.71 59.33 53.39 59.27 53.19 59.06C52.71 58.52 52.27 57.95 51.88 57.35C51.72 57.1 51.75 56.78 51.95 56.56L53.16 55.19C53.32 55.01 53.37 54.76 53.29 54.53L52.65 52.74C52.57 52.51 52.38 52.34 52.14 52.3L50.34 52C50.05 51.95 49.83 51.71 49.8 51.42C49.76 51.09 49.72 50.8 49.72 50.42V49.3C49.73 49 49.95 48.75 50.24 48.68L52.02 48.28C52.25 48.22 52.44 48.05 52.5 47.82L53.04 46C53.11 45.77 53.05 45.52 52.88 45.34L51.6 44.04C51.39 43.83 51.35 43.51 51.49 43.25C51.85 42.63 52.26 42.04 52.7 41.49C52.89 41.25 53.22 41.18 53.49 41.31L55.17 42.04C55.39 42.14 55.65 42.1 55.84 41.96L57.35 40.8C57.54 40.65 57.64 40.42 57.6 40.18L57.32 38.34C57.28 38.05 57.42 37.77 57.69 37.65C58.34 37.36 59.02 37.12 59.71 36.93C59.99 36.86 60.29 36.98 60.44 37.24L61.37 38.82C61.49 39.03 61.71 39.15 61.96 39.15L63.87 39.1C64.11 39.1 64.33 38.96 64.44 38.74L65.3 37.16C65.43 36.9 65.72 36.76 66.01 36.82C66.68 36.97 67.33 37.16 67.96 37.4C68.23 37.5 68.4 37.78 68.38 38.07L68.21 39.94C68.2 40.15 68.32 40.38 68.52 40.51ZM75.25 62.34L75.14 62.46C74.85 62.81 74.59 63.19 74.28 63.52C73.48 64.39 72.68 65.27 71.81 66.11C71.14 66.78 70.39 67.35 69.57 67.83C69.2 68.04 68.82 68.23 68.43 68.4C67.56 68.77 66.6 68.86 65.68 68.68C65.07 68.58 64.48 68.38 63.93 68.09C63.9 68.07 63.87 68.06 63.83 68.04C63.93 67.99 64.04 67.95 64.14 67.91C65.03 67.64 65.87 67.23 66.63 66.71C67.66 66.01 68.64 65.25 69.58 64.45C70.76 63.51 72.16 62.87 73.64 62.61C74.12 62.52 74.6 62.45 75.08 62.37L75.25 62.34ZM62.25 32.1C61.36 32.37 60.52 32.78 59.75 33.3C58.73 34 57.74 34.76 56.8 35.56C55.62 36.5 54.23 37.14 52.74 37.39C52.26 37.49 51.78 37.55 51.3 37.63L51.15 37.65L51.26 37.53C51.55 37.18 51.81 36.8 52.12 36.47C52.92 35.6 53.72 34.72 54.59 33.88C55.26 33.21 56.01 32.63 56.83 32.16C57.2 31.95 57.58 31.76 57.97 31.59C58.84 31.22 59.8 31.12 60.73 31.31C61.34 31.41 61.93 31.61 62.47 31.9C62.51 31.92 62.53 31.94 62.57 31.95C62.46 32.02 62.35 32.06 62.25 32.1ZM57.06 30.65C55.89 31.2 54.82 31.93 53.87 32.82C53.79 32.89 53.7 32.97 53.62 33.05C52.82 33.79 52.02 34.56 51.22 35.3C50.82 35.68 50.42 36.04 50.03 36.39C49.26 37.04 48.32 37.4 47.35 37.66C47.31 37.67 47.27 37.68 47.24 37.69C47.08 37.73 46.92 37.77 46.76 37.8C46.67 37.82 46.59 37.84 46.5 37.85C46.35 37.88 46.22 37.9 46.1 37.92C46.09 37.92 46.09 37.92 46.08 37.92C45.92 37.93 45.77 37.93 45.54 37.98C45.64 37.81 45.71 37.71 45.76 37.63C46.25 36.92 46.85 36.3 47.39 35.63C47.85 35.07 48.31 34.51 48.77 33.95C49.7 32.77 50.82 31.75 52.08 30.94C53.04 30.38 54.12 30.03 55.23 29.92C55.96 29.84 56.7 29.9 57.41 30.1C57.55 30.14 57.69 30.2 57.83 30.26C57.51 30.43 57.29 30.54 57.06 30.65ZM73.59 71.12C73.46 71.23 73.32 71.33 73.18 71.43C72.55 71.85 71.89 72.28 71.2 72.58C70.89 72.74 70.56 72.88 70.23 73C70.15 73.03 70.06 73.06 69.98 73.08C69.36 73.31 68.72 73.5 68.08 73.62C67.22 73.79 66.33 73.86 65.45 73.83C65.41 73.83 65.37 73.83 65.32 73.82C64.06 73.73 62.83 73.49 61.62 73.13L57.45 71.59C58.02 72.04 58.62 72.45 59.25 72.81C59.38 72.88 59.5 72.95 59.63 73.02C60.49 73.48 61.39 73.85 62.33 74.13C62.5 74.18 62.85 74.27 62.86 74.27C63.13 74.34 63.4 74.41 63.69 74.46C64.15 74.55 64.62 74.62 65.1 74.67C65.18 74.68 65.26 74.68 65.33 74.69C65.31 74.7 65.29 74.72 65.27 74.73C65.25 74.75 65.23 74.75 65.21 74.77C65.12 74.83 65.02 74.87 64.92 74.92C64.49 75.13 64.05 75.29 63.6 75.41C58.99 76.72 53.29 74.31 49.55 71.9C47.64 70.67 45.88 69.23 44.29 67.61C42.58 65.87 41.15 63.88 40.02 61.71C39.94 61.55 39.86 61.39 39.78 61.22C39.24 60.11 38.79 58.96 38.42 57.78C37.84 55.96 37.5 54.08 37.39 52.18C37.34 51.02 37.27 49.85 37.32 48.7C37.38 46.88 37.61 45.08 38.03 43.32C38.41 41.8 38.91 40.32 39.55 38.88C39.7 38.55 39.84 38.24 40.01 37.92C40.03 37.86 40.06 37.81 40.09 37.75C42.31 33.62 45.61 30.16 49.62 27.75C49.61 27.78 49.59 27.81 49.58 27.83C49.56 27.86 49.54 27.89 49.52 27.93C48.84 28.73 48.18 29.53 47.48 30.34C45.85 32.12 44.46 34.12 43.35 36.27C42.1 38.66 41.3 41.26 41 43.94C40.72 46.75 41.06 49.58 41.98 52.24C42.5 53.88 43.24 55.43 44.19 56.86C44.19 56.87 44.21 56.88 44.21 56.9C44.6 57.49 45.02 58.05 45.47 58.58C45.5 58.62 45.52 58.65 45.55 58.68C45.58 58.71 45.61 58.74 45.63 58.78C46.43 59.74 47.37 60.6 48.4 61.31C48.76 61.53 49.15 61.7 49.55 61.82C49.57 61.82 49.59 61.83 49.61 61.83C49.67 61.85 49.73 61.86 49.8 61.88C51.52 62.27 53.17 62.89 54.73 63.7C55.91 64.36 57.1 65.02 58.27 65.71C58.69 65.96 59.11 66.21 59.53 66.47C60.3 66.96 61.09 67.42 61.89 67.86C63.06 68.5 64.27 69.09 65.5 69.62C66.27 69.96 67.07 70.25 67.89 70.46C68.54 70.63 69.2 70.76 69.86 70.85C70.28 70.89 70.69 70.93 71.1 70.96C71.86 71 72.61 71.02 73.38 70.98C73.51 70.98 73.63 70.97 73.76 70.96C73.71 71.03 73.65 71.08 73.59 71.12ZM71.18 70.06C70.45 70.13 69.71 70.08 69 69.88C68.86 69.84 68.72 69.78 68.58 69.72C68.88 69.57 69.11 69.45 69.34 69.35C70.51 68.8 71.59 68.07 72.53 67.17C72.61 67.1 72.69 67.02 72.77 66.94C73.57 66.21 74.37 65.43 75.17 64.69C75.57 64.31 75.97 63.95 76.36 63.59C77.14 62.94 78.07 62.58 79.04 62.33C79.08 62.32 79.12 62.31 79.15 62.3C79.31 62.26 79.47 62.22 79.63 62.19C79.72 62.17 79.8 62.15 79.89 62.14C80.04 62.11 80.17 62.09 80.3 62.07C80.3 62.07 80.31 62.07 80.32 62.07C80.48 62.06 80.62 62.06 80.85 62.01C80.75 62.18 80.69 62.28 80.63 62.36C80.15 63.07 79.54 63.69 79 64.36H78.99C78.53 64.92 78.07 65.48 77.61 66.03C76.68 67.21 75.56 68.23 74.29 69.04C73.37 69.6 72.29 69.94 71.18 70.06ZM88.38 56.68C88 58.2 87.5 59.68 86.86 61.12C86.71 61.44 86.57 61.76 86.4 62.08C86.38 62.14 86.35 62.19 86.32 62.25C84.1 66.38 80.8 69.84 76.79 72.24C76.81 72.21 76.82 72.19 76.83 72.16C76.85 72.12 76.87 72.09 76.89 72.06C77.57 71.26 78.23 70.46 78.93 69.65C80.56 67.86 81.95 65.87 83.06 63.72C84.31 61.33 85.11 58.73 85.41 56.05C85.68 53.24 85.35 50.41 84.43 47.75C83.91 46.11 83.16 44.56 82.22 43.13C82.21 43.12 82.2 43.11 82.2 43.09C81.81 42.51 81.39 41.95 80.93 41.41C80.9 41.38 80.88 41.35 80.85 41.31C80.82 41.28 80.79 41.25 80.77 41.21C79.97 40.25 79.03 39.39 78 38.68C77.64 38.46 77.25 38.29 76.85 38.18C76.83 38.18 76.81 38.17 76.79 38.16C76.73 38.14 76.67 38.13 76.61 38.12C74.89 37.73 73.23 37.11 71.68 36.29C70.5 35.63 69.32 34.97 68.14 34.28C67.72 34.03 67.3 33.78 66.88 33.53C66.11 33.04 65.32 32.58 64.52 32.14C63.35 31.5 62.14 30.91 60.91 30.39C60.14 30.05 59.34 29.76 58.52 29.54C57.87 29.37 57.21 29.24 56.55 29.15C56.13 29.1 55.72 29.07 55.31 29.04C54.55 29 53.8 28.98 53.03 29.01C52.9 29.01 52.78 29.03 52.65 29.03C52.71 28.99 52.77 28.94 52.83 28.89C52.96 28.78 53.1 28.68 53.25 28.58C53.88 28.16 54.54 27.74 55.22 27.44C55.53 27.28 55.86 27.14 56.19 27.02C56.27 26.99 56.36 26.96 56.44 26.94C57.06 26.71 57.7 26.52 58.35 26.4C59.21 26.23 60.09 26.17 60.98 26.2C61.02 26.2 61.07 26.2 61.11 26.2C62.37 26.3 63.6 26.53 64.81 26.89L68.98 28.43C68.41 27.98 67.81 27.57 67.18 27.22C67.05 27.15 66.93 27.07 66.8 27.01C65.94 26.55 65.04 26.18 64.1 25.9C63.93 25.85 63.58 25.76 63.58 25.75C63.31 25.68 63.03 25.62 62.75 25.56C62.28 25.47 61.81 25.4 61.34 25.35C61.26 25.34 61.19 25.33 61.11 25.33C61.13 25.32 61.15 25.3 61.18 25.29C61.2 25.28 61.22 25.27 61.23 25.26C61.33 25.2 61.42 25.16 61.52 25.11C61.95 24.91 62.39 24.74 62.84 24.62C67.45 23.32 73.15 25.73 76.89 28.13C78.8 29.36 80.56 30.8 82.15 32.42C83.86 34.16 85.29 36.15 86.42 38.31C86.5 38.47 86.58 38.64 86.66 38.8C87.2 39.91 87.65 41.06 88.02 42.24C88.6 44.06 88.95 45.94 89.05 47.85C89.1 49.01 89.18 50.18 89.13 51.33C89.04 53.12 88.79 54.92 88.38 56.68Z" fill="#54565A"/>
<path d="M68.64 45.23C66.01 42.23 61.45 41.94 58.45 44.56C55.45 47.19 55.16 51.76 57.78 54.75C60.41 57.75 64.98 58.05 67.97 55.42C70.98 52.79 71.28 48.22 68.64 45.23ZM63.71 53.47C63.19 53.76 62.6 53.92 62 53.94H61.8C59.62 53.92 57.88 52.14 57.9 49.96C57.92 48.43 58.82 47.04 60.23 46.41C60.38 46.34 60.54 46.28 60.69 46.23C61.07 46.11 61.47 46.06 61.87 46.06C63.23 46.06 64.49 46.76 65.21 47.92C64.3 46.89 62.82 46.57 61.56 47.13C61.41 47.2 61.27 47.28 61.14 47.37C60.25 47.95 59.7 48.93 59.69 49.99C59.69 50.67 59.9 51.34 60.31 51.89C60.9 52.69 61.84 53.16 62.83 53.17C63.04 53.17 63.24 53.15 63.44 53.11C64.11 52.98 64.73 52.64 65.19 52.13C64.82 52.69 64.29 53.15 63.71 53.47ZM67.66 50.05L67.88 50.36L68.49 51.21L67.13 50.76L66.29 51.92V50.49L64.93 50.03L66.29 49.6L66.31 48.17L66.67 48.67L67.15 49.33L68.51 48.9L67.66 50.05Z" fill="#54565A"/>
<path d="M120.76 27H117.2V24.48H127.38V27H123.76V37.74H120.75V27H120.76Z" fill="#54565A"/>
<path d="M127.03 36.1401C127.03 35.0801 127.76 34.3101 128.8 34.3101C129.84 34.3101 130.55 35.0601 130.55 36.1401C130.55 37.1801 129.84 37.9501 128.78 37.9501C127.76 37.9501 127.03 37.1801 127.03 36.1401Z" fill="#54565A"/>
<path d="M142.19 37.36C141.64 37.64 140.4 37.93 138.79 37.93C134.21 37.93 131.85 35.08 131.85 31.3C131.85 26.78 135.07 24.26 139.09 24.26C140.64 24.26 141.82 24.57 142.35 24.85L141.74 27.23C141.13 26.97 140.28 26.74 139.22 26.74C136.84 26.74 134.99 28.17 134.99 31.12C134.99 33.77 136.56 35.44 139.24 35.44C140.14 35.44 141.15 35.24 141.74 35.01L142.19 37.36Z" fill="#54565A"/>
<path d="M143.84 36.1401C143.84 35.0801 144.57 34.3101 145.61 34.3101C146.65 34.3101 147.36 35.0601 147.36 36.1401C147.36 37.1801 146.65 37.9501 145.59 37.9501C144.57 37.9501 143.84 37.1801 143.84 36.1401Z" fill="#54565A"/>
<path d="M162.97 37.36C162.44 37.62 161.3 37.91 159.8 37.93L159.47 38.6C160.24 38.78 160.9 39.29 160.9 40.21C160.9 41.57 159.68 42.02 158.56 42.02C157.97 42.02 157.32 41.9 156.87 41.65L157.26 40.43C157.55 40.59 158.01 40.7 158.36 40.7C158.75 40.7 159.07 40.56 159.07 40.23C159.07 39.82 158.62 39.6 157.52 39.48L158.27 37.85C154.53 37.36 152.63 34.7 152.63 31.3C152.63 26.78 155.85 24.26 159.86 24.26C161.41 24.26 162.59 24.57 163.12 24.85L162.51 27.23C161.9 26.97 161.05 26.74 159.99 26.74C157.61 26.74 155.76 28.17 155.76 31.12C155.76 33.77 157.33 35.44 160.01 35.44C160.91 35.44 161.92 35.24 162.51 35.01L162.97 37.36Z" fill="#54565A"/>
<path d="M168.23 34.33L167.29 37.73H164.18L168.23 24.48H172.16L176.27 37.73H173.05L172.03 34.33H168.23ZM171.59 32.09L170.76 29.28C170.52 28.49 170.29 27.51 170.09 26.72H170.05C169.85 27.51 169.66 28.51 169.44 29.28L168.65 32.09H171.59Z" fill="#54565A"/>
<path d="M178.04 24.48H181.05V35.22H186.32V37.74H178.04V24.48Z" fill="#54565A"/>
<path d="M191.1 24.48V37.73H188.09V24.48H191.1Z" fill="#54565A"/>
<path d="M201.08 27.35C200.55 27.09 199.61 26.72 198.31 26.72C197.01 26.72 196.38 27.31 196.38 28C196.38 28.85 197.13 29.22 198.84 29.87C201.18 30.73 202.28 31.95 202.28 33.82C202.28 35.71 201.06 37.34 198.47 37.79L198.1 38.6C198.85 38.78 199.53 39.29 199.53 40.21C199.53 41.57 198.31 42.02 197.19 42.02C196.58 42.02 195.95 41.9 195.5 41.65L195.89 40.43C196.17 40.59 196.62 40.7 196.99 40.7C197.38 40.7 197.7 40.56 197.7 40.23C197.7 39.82 197.23 39.6 196.15 39.48L196.86 37.93C195.37 37.91 193.91 37.54 193.18 37.12L193.79 34.64C194.6 35.05 195.83 35.47 197.11 35.47C198.49 35.47 199.21 34.9 199.21 34.03C199.21 33.2 198.58 32.73 196.99 32.16C194.79 31.39 193.35 30.17 193.35 28.25C193.35 25.99 195.24 24.26 198.36 24.26C199.85 24.26 200.96 24.57 201.74 24.93L201.08 27.35Z" fill="#54565A"/>
<path d="M215.52 32.66C215.46 31.07 215.4 29.14 215.4 27.21H215.34C214.93 28.9 214.38 30.79 213.87 32.34L212.26 37.51H209.92L208.5 32.38C208.07 30.83 207.62 28.94 207.3 27.21H207.26C207.18 29 207.12 31.04 207.02 32.7L206.78 37.73H204.01L204.86 24.48H208.85L210.15 28.9C210.56 30.43 210.98 32.08 211.27 33.64H211.33C211.7 32.11 212.16 30.36 212.59 28.88L214.01 24.48H217.92L218.65 37.73H215.72L215.52 32.66Z" fill="#54565A"/>
<path d="M223.97 34.33L223.03 37.73H219.92L223.97 24.48H227.9L232.01 37.73H228.79L227.77 34.33H223.97ZM227.34 32.09L226.51 29.28C226.27 28.49 226.04 27.51 225.84 26.72H225.8C225.6 27.51 225.41 28.51 225.19 29.28L224.4 32.09H227.34Z" fill="#54565A"/>
<path d="M240.16 37.73L235.91 24.48H239.19L240.8 30.08C241.25 31.65 241.66 33.17 241.98 34.82H242.04C242.37 33.23 242.79 31.65 243.24 30.14L244.93 24.48H248.11L243.65 37.73H240.16Z" fill="#54565A"/>
<path d="M257.42 32.13H252.54V35.28H257.99V37.74H249.54V24.48H257.72V26.94H252.55V29.69H257.43V32.13H257.42Z" fill="#54565A"/>
<path d="M118.3 56.25C119.11 56.66 120.34 57.08 121.62 57.08C123 57.08 123.72 56.51 123.72 55.64C123.72 54.81 123.09 54.34 121.5 53.77C119.3 53 117.86 51.78 117.86 49.86C117.86 47.6 119.75 45.87 122.87 45.87C124.36 45.87 125.47 46.18 126.25 46.54L125.58 48.96C125.05 48.7 124.11 48.33 122.81 48.33C121.51 48.33 120.88 48.92 120.88 49.61C120.88 50.46 121.63 50.83 123.34 51.48C125.68 52.34 126.78 53.56 126.78 55.43C126.78 57.65 125.07 59.54 121.43 59.54C119.92 59.54 118.42 59.15 117.67 58.73L118.3 56.25Z" fill="#54565A"/>
<path d="M140.95 52.57C140.95 56.91 138.32 59.55 134.44 59.55C130.51 59.55 128.21 56.58 128.21 52.81C128.21 48.84 130.75 45.87 134.66 45.87C138.73 45.86 140.95 48.91 140.95 52.57ZM131.38 52.75C131.38 55.35 132.6 57.17 134.6 57.17C136.62 57.17 137.79 55.24 137.79 52.67C137.79 50.29 136.65 48.25 134.59 48.25C132.56 48.24 131.38 50.17 131.38 52.75Z" fill="#54565A"/>
<path d="M143.02 56.25C143.83 56.66 145.06 57.08 146.34 57.08C147.72 57.08 148.44 56.51 148.44 55.64C148.44 54.81 147.81 54.34 146.22 53.77C144.02 53 142.58 51.78 142.58 49.86C142.58 47.6 144.47 45.87 147.59 45.87C149.08 45.87 150.19 46.18 150.97 46.54L150.3 48.96C149.77 48.7 148.83 48.33 147.53 48.33C146.23 48.33 145.6 48.92 145.6 49.61C145.6 50.46 146.35 50.83 148.06 51.48C150.4 52.34 151.5 53.56 151.5 55.43C151.5 57.65 149.79 59.54 146.15 59.54C144.64 59.54 143.14 59.15 142.4 58.73L143.02 56.25Z" fill="#54565A"/>
<path d="M156.6 59.3301V53.9001L152.41 46.0701H155.83L157.19 49.2601C157.6 50.2201 157.88 50.9301 158.21 51.8001H158.25C158.54 50.9701 158.86 50.2101 159.25 49.2601L160.59 46.0701H163.95L159.58 53.8001V59.3201H156.6V59.3301Z" fill="#54565A"/>
<path d="M166.67 55.93L165.73 59.33H162.62L166.67 46.08H170.6L174.71 59.33H171.49L170.47 55.93H166.67ZM170.04 53.69L169.21 50.88C168.97 50.09 168.74 49.11 168.54 48.32H168.5C168.3 49.11 168.11 50.11 167.89 50.88L167.1 53.69H170.04Z" fill="#54565A"/>
<path d="M176.49 46.08H179.5V56.82H184.77V59.34H176.49V46.08Z" fill="#54565A"/>
<path d="M201.58 58.7201C200.66 59.0301 198.91 59.4701 197.16 59.4701C194.74 59.4701 192.99 58.8601 191.77 57.6801C190.55 56.5401 189.88 54.8101 189.9 52.8601C189.92 48.4601 193.12 45.9401 197.47 45.9401C199.18 45.9401 200.5 46.2701 201.15 46.5901L200.52 48.9901C199.79 48.6801 198.89 48.4201 197.43 48.4201C194.93 48.4201 193.05 49.8401 193.05 52.7101C193.05 55.4401 194.76 57.0501 197.22 57.0501C197.91 57.0501 198.46 56.9701 198.7 56.8501V54.0801H196.65V51.7401H201.59V58.7201H201.58Z" fill="#54565A"/>
<path d="M206.91 46.08V53.71C206.91 55.99 207.78 57.15 209.31 57.15C210.88 57.15 211.75 56.05 211.75 53.71V46.08H214.74V53.51C214.74 57.6 212.68 59.55 209.22 59.55C205.88 59.55 203.91 57.7 203.91 53.47V46.08H206.91ZM206.06 43.98C206.06 43.21 206.65 42.62 207.42 42.62C208.15 42.62 208.72 43.21 208.72 43.98C208.72 44.71 208.17 45.32 207.42 45.32C206.63 45.31 206.06 44.7 206.06 43.98ZM210.15 43.98C210.15 43.21 210.72 42.62 211.49 42.62C212.24 42.62 212.81 43.21 212.81 43.98C212.81 44.71 212.26 45.32 211.49 45.32C210.7 45.31 210.15 44.7 210.15 43.98Z" fill="#54565A"/>
<path d="M220.45 59.33L216.2 46.08H219.48L221.09 51.68C221.54 53.25 221.95 54.77 222.27 56.42H222.33C222.66 54.83 223.08 53.25 223.53 51.74L225.22 46.08H228.4L223.94 59.33H220.45Z" fill="#54565A"/>
<path d="M237.72 53.73H232.84V56.88H238.29V59.34H229.84V46.08H238.02V48.54H232.85V51.29H237.73V53.73H237.72Z" fill="#54565A"/>
<path d="M240.34 59.33V46.08H243.84L246.59 50.94C247.38 52.34 248.16 53.99 248.75 55.48H248.81C248.61 53.73 248.55 51.94 248.55 49.96V46.09H251.3V59.34H248.15L245.32 54.23C244.53 52.81 243.67 51.1 243.02 49.55L242.96 49.57C243.04 51.32 243.08 53.19 243.08 55.35V59.34H240.34V59.33Z" fill="#54565A"/>
<path d="M253.9 46.08H256.91V56.82H262.18V59.34H253.9V46.08Z" fill="#54565A"/>
<path d="M266.96 46.08V59.33H263.95V46.08H266.96ZM264.11 43.98C264.11 43.21 264.72 42.62 265.49 42.62C266.24 42.62 266.81 43.21 266.81 43.98C266.81 44.69 266.24 45.32 265.49 45.32C264.7 45.31 264.11 44.68 264.11 43.98Z" fill="#54565A"/>
<path d="M269.56 46.08H272.53V51.94H272.59C272.88 51.43 273.2 50.96 273.49 50.48L276.5 46.08H280.18L275.8 51.72L280.42 59.33H276.92L273.68 53.61L272.54 55.01V59.34H269.57V46.08H269.56Z" fill="#54565A"/>
<path d="M285.6 46.26C286.39 46.1 287.98 45.98 289.47 45.98C291.3 45.98 292.42 46.16 293.38 46.73C294.3 47.22 294.97 48.13 294.97 49.33C294.97 50.51 294.28 51.61 292.79 52.16V52.2C294.3 52.61 295.42 53.75 295.42 55.46C295.42 56.66 294.87 57.6 294.04 58.27C293.08 59.04 291.46 59.47 288.83 59.47C287.36 59.47 286.25 59.37 285.59 59.27V46.26H285.6ZM288.57 51.33H289.55C291.12 51.33 291.97 50.68 291.97 49.7C291.97 48.7 291.2 48.17 289.85 48.17C289.2 48.17 288.83 48.21 288.57 48.25V51.33ZM288.57 57.21C288.86 57.25 289.22 57.25 289.73 57.25C291.09 57.25 292.29 56.74 292.29 55.34C292.29 54 291.09 53.47 289.6 53.47H288.58V57.21H288.57Z" fill="#54565A"/>
<path d="M300.49 55.93L299.55 59.33H296.44L300.49 46.08H304.42L308.53 59.33H305.31L304.29 55.93H300.49ZM303.85 53.69L303.02 50.88C302.78 50.09 302.55 49.11 302.35 48.32H302.31C302.11 49.11 301.92 50.11 301.7 50.88L300.91 53.69H303.85Z" fill="#54565A"/>
<path d="M310.3 46.08H313.27V51.94H313.33C313.62 51.43 313.94 50.96 314.23 50.48L317.24 46.08H320.92L316.54 51.72L321.16 59.33H317.66L314.42 53.61L313.28 55.01V59.34H310.31V46.08H310.3Z" fill="#54565A"/>
<path d="M325.72 55.93L324.78 59.33H321.67L325.72 46.08H329.65L333.76 59.33H330.54L329.52 55.93H325.72ZM329.08 53.69L328.25 50.88C328.01 50.09 327.78 49.11 327.58 48.32H327.54C327.34 49.11 327.15 50.11 326.93 50.88L326.14 53.69H329.08Z" fill="#54565A"/>
<path d="M335.53 59.33V46.08H339.03L341.78 50.94C342.57 52.34 343.35 53.99 343.94 55.48H344C343.8 53.73 343.74 51.94 343.74 49.96V46.09H346.49V59.34H343.34L340.51 54.23C339.72 52.81 338.86 51.1 338.21 49.55L338.15 49.57C338.23 51.32 338.27 53.19 338.27 55.35V59.34H335.53V59.33Z" fill="#54565A"/>
<path d="M349.1 46.08H352.11V56.82H357.38V59.34H349.1V46.08Z" fill="#54565A"/>
<path d="M362.15 46.08V59.33H359.14V46.08H362.15Z" fill="#54565A"/>
<path d="M375.82 58.7201C374.9 59.0301 373.15 59.4701 371.4 59.4701C368.98 59.4701 367.23 58.86 366.01 57.68C364.79 56.54 364.12 54.8101 364.14 52.8601C364.16 48.4601 367.36 45.94 371.71 45.94C373.42 45.94 374.74 46.27 375.39 46.59L374.76 48.9901C374.03 48.6801 373.13 48.42 371.67 48.42C369.17 48.42 367.29 49.84 367.29 52.71C367.29 55.44 369 57.05 371.46 57.05C372.15 57.05 372.7 56.97 372.94 56.85V54.0801H370.89V51.7401H375.83V58.7201H375.82ZM369.74 42.8C369.8 43.23 370.09 43.7001 370.9 43.7001C371.73 43.7001 372.04 43.27 372.14 42.8H373.67C373.63 44.24 372.79 45.28 370.92 45.28C368.97 45.28 368.19 44.24 368.17 42.8H369.74Z" fill="#54565A"/>
<path d="M381.17 46.08V59.33H378.16V46.08H381.17Z" fill="#54565A"/>
<path d="M117.2 73.7299V69.1799H118.34V73.6799C118.34 75.4499 119.15 76.2499 120.59 76.2499C122.03 76.2499 122.85 75.4499 122.85 73.6799V69.1799H123.96V73.7299C123.96 76.0499 122.69 77.2699 120.58 77.2699C118.48 77.2699 117.2 76.0499 117.2 73.7299Z" fill="#54565A"/>
<path d="M126.3 69.1799H127.44V76.1799H131.77V77.1699H126.3V69.1799Z" fill="#54565A"/>
<path d="M132.87 73.7299V69.1799H134.01V73.6799C134.01 75.4499 134.82 76.2499 136.26 76.2499C137.7 76.2499 138.52 75.4499 138.52 73.6799V69.1799H139.63V73.7299C139.63 76.0499 138.36 77.2699 136.25 77.2699C134.15 77.2699 132.87 76.0499 132.87 73.7299Z" fill="#54565A"/>
<path d="M141.24 76.26L141.66 75.37C142.25 75.91 143.27 76.29 144.3 76.29C145.68 76.29 146.28 75.75 146.28 75.06C146.28 73.11 141.44 74.34 141.44 71.37C141.44 70.14 142.4 69.09 144.5 69.09C145.44 69.09 146.41 69.34 147.07 69.8L146.69 70.71C145.99 70.26 145.21 70.06 144.5 70.06C143.14 70.06 142.56 70.63 142.56 71.33C142.56 73.28 147.4 72.06 147.4 75C147.4 76.22 146.42 77.27 144.31 77.27C143.08 77.27 141.88 76.86 141.24 76.26Z" fill="#54565A"/>
<path d="M149.06 69.1799H150.2V76.1799H154.53V77.1699H149.06V69.1799Z" fill="#54565A"/>
<path d="M160.97 75.1799H156.72L155.84 77.1799H154.66L158.28 69.1899H159.41L163.04 77.1799H161.84L160.97 75.1799ZM160.57 74.2599L158.85 70.3399L157.13 74.2599H160.57Z" fill="#54565A"/>
<path d="M169.58 77.1799L167.86 74.7199C167.7 74.7299 167.53 74.7399 167.36 74.7399H165.38V77.1699H164.24V69.1799H167.36C169.44 69.1799 170.69 70.2299 170.69 71.9699C170.69 73.1999 170.05 74.0899 168.93 74.4899L170.83 77.1699H169.58V77.1799ZM169.55 71.9699C169.55 70.8299 168.78 70.1799 167.32 70.1799H165.38V73.7799H167.32C168.78 73.7699 169.55 73.1099 169.55 71.9699Z" fill="#54565A"/>
<path d="M177.63 75.1799H173.38L172.5 77.1799H171.32L174.94 69.1899H176.07L179.7 77.1799H178.5L177.63 75.1799ZM177.23 74.2599L175.51 70.3399L173.79 74.2599H177.23Z" fill="#54565A"/>
<path d="M186.24 77.1799L184.52 74.7199C184.36 74.7299 184.19 74.7399 184.02 74.7399H182.04V77.1699H180.9V69.1799H184.02C186.1 69.1799 187.35 70.2299 187.35 71.9699C187.35 73.1999 186.71 74.0899 185.59 74.4899L187.49 77.1699H186.24V77.1799ZM186.21 71.9699C186.21 70.8299 185.44 70.1799 183.98 70.1799H182.04V73.7799H183.98C185.44 73.7699 186.21 73.1099 186.21 71.9699Z" fill="#54565A"/>
<path d="M194.29 75.1799H190.04L189.16 77.1799H187.98L191.6 69.1899H192.73L196.36 77.1799H195.16L194.29 75.1799ZM193.89 74.2599L192.17 70.3399L190.45 74.2599H193.89Z" fill="#54565A"/>
<path d="M196.82 76.26L197.24 75.37C197.83 75.91 198.85 76.29 199.88 76.29C201.26 76.29 201.86 75.75 201.86 75.06C201.86 73.11 197.02 74.34 197.02 71.37C197.02 70.14 197.98 69.09 200.08 69.09C201.02 69.09 201.99 69.34 202.65 69.8L202.27 70.71C201.57 70.26 200.79 70.06 200.08 70.06C198.72 70.06 198.14 70.63 198.14 71.33C198.14 73.28 202.98 72.06 202.98 75C202.98 76.22 202 77.27 199.89 77.27C198.66 77.27 197.46 76.86 196.82 76.26Z" fill="#54565A"/>
<path d="M204.64 69.1799H205.78V77.1699H204.64V69.1799Z" fill="#54565A"/>
<path d="M211.15 67.65C211.15 67.27 211.45 66.98 211.82 66.98C212.2 66.98 212.49 67.28 212.49 67.65C212.49 68.04 212.19 68.32 211.82 68.32C211.45 68.33 211.15 68.04 211.15 67.65ZM211.25 69.18H212.39V77.17H211.25V69.18Z" fill="#54565A"/>
<path d="M217.53 77.26L217.4 77.75C218.06 77.82 218.39 78.2 218.39 78.7C218.39 79.34 217.83 79.74 216.97 79.74C216.57 79.74 216.24 79.66 215.95 79.49L216.19 78.93C216.43 79.07 216.68 79.12 216.97 79.12C217.4 79.12 217.61 78.95 217.61 78.66C217.61 78.4 217.42 78.21 216.96 78.21H216.65L216.89 77.26C215.75 77.21 214.65 76.81 214.05 76.26L214.47 75.37C215.06 75.91 216.08 76.29 217.11 76.29C218.49 76.29 219.09 75.75 219.09 75.06C219.09 73.11 214.25 74.34 214.25 71.37C214.25 70.14 215.21 69.09 217.31 69.09C218.25 69.09 219.22 69.34 219.88 69.8L219.5 70.71C218.8 70.26 218.02 70.06 217.31 70.06C215.95 70.06 215.37 70.63 215.37 71.33C215.37 73.28 220.21 72.06 220.21 75C220.22 76.14 219.36 77.12 217.53 77.26Z" fill="#54565A"/>
<path d="M227.42 73.13H228.52V76.25C227.72 76.92 226.61 77.27 225.49 77.27C223.03 77.27 221.23 75.55 221.23 73.18C221.23 70.82 223.03 69.09 225.51 69.09C226.78 69.09 227.85 69.51 228.58 70.32L227.87 71.03C227.21 70.39 226.45 70.11 225.55 70.11C223.7 70.11 222.36 71.4 222.36 73.18C222.36 74.94 223.7 76.25 225.53 76.25C226.2 76.25 226.83 76.1 227.4 75.74V73.13H227.42Z" fill="#54565A"/>
<path d="M230.63 73.73V69.18H231.77V73.68C231.77 75.45 232.58 76.25 234.02 76.25C235.46 76.25 236.28 75.45 236.28 73.68V69.18H237.39V73.73C237.39 76.05 236.12 77.27 234.01 77.27C231.91 77.27 230.63 76.05 230.63 73.73ZM232.38 67.75C232.38 67.41 232.64 67.16 232.96 67.16C233.28 67.16 233.54 67.41 233.54 67.75C233.54 68.09 233.28 68.33 232.96 68.33C232.64 68.34 232.38 68.1 232.38 67.75ZM234.5 67.75C234.5 67.41 234.76 67.16 235.08 67.16C235.4 67.16 235.66 67.41 235.66 67.75C235.66 68.09 235.4 68.33 235.08 68.33C234.76 68.34 234.5 68.1 234.5 67.75Z" fill="#54565A"/>
<path d="M239.08 73.18C239.08 70.82 240.88 69.09 243.32 69.09C244.55 69.09 245.63 69.51 246.36 70.33L245.62 71.05C245 70.4 244.25 70.1 243.37 70.1C241.57 70.1 240.23 71.4 240.23 73.17C240.23 74.94 241.57 76.24 243.37 76.24C244.25 76.24 245 75.93 245.62 75.28L246.36 76C245.63 76.82 244.56 77.26 243.31 77.26C240.88 77.27 239.08 75.54 239.08 73.18Z" fill="#54565A"/>
<path d="M247.88 73.73V69.18H249.02V73.68C249.02 75.45 249.83 76.25 251.27 76.25C252.71 76.25 253.53 75.45 253.53 73.68V69.18H254.64V73.73C254.64 76.05 253.37 77.27 251.26 77.27C249.16 77.27 247.88 76.05 247.88 73.73ZM249.63 67.75C249.63 67.41 249.89 67.16 250.21 67.16C250.53 67.16 250.79 67.41 250.79 67.75C250.79 68.09 250.53 68.33 250.21 68.33C249.89 68.34 249.63 68.1 249.63 67.75ZM251.75 67.75C251.75 67.41 252.01 67.16 252.33 67.16C252.65 67.16 252.91 67.41 252.91 67.75C252.91 68.09 252.65 68.33 252.33 68.33C252.02 68.34 251.75 68.1 251.75 67.75Z" fill="#54565A"/>
<path d="M265.59 73.13H266.69V76.25C265.89 76.92 264.78 77.27 263.66 77.27C261.2 77.27 259.4 75.55 259.4 73.18C259.4 70.82 261.2 69.09 263.68 69.09C264.95 69.09 266.02 69.51 266.75 70.32L266.04 71.03C265.38 70.39 264.62 70.11 263.72 70.11C261.87 70.11 260.53 71.4 260.53 73.18C260.53 74.94 261.87 76.25 263.7 76.25C264.37 76.25 265 76.1 265.57 75.74V73.13H265.59Z" fill="#54565A"/>
<path d="M274.67 76.1799V77.1699H268.87V69.1799H274.51V70.1699H270.01V72.6299H274.02V73.5999H270.01V76.1799H274.67Z" fill="#54565A"/>
<path d="M283.39 69.1799V77.1699H282.45L277.65 71.2099V77.1699H276.51V69.1799H277.45L282.25 75.1399V69.1799H283.39Z" fill="#54565A"/>
<path d="M291.59 76.1799V77.1699H285.79V69.1799H291.43V70.1699H286.93V72.6299H290.94V73.5999H286.93V76.1799H291.59Z" fill="#54565A"/>
<path d="M293.44 69.1799H294.58V76.1799H298.91V77.1699H293.44V69.1799Z" fill="#54565A"/>
<path d="M310.7 77.1799L310.69 71.3599L307.8 76.2099H307.27L304.38 71.3899V77.1799H303.28V69.1899H304.22L307.55 74.8099L310.84 69.1899H311.78L311.79 77.1799H310.7Z" fill="#54565A"/>
<path d="M314.13 73.73V69.18H315.27V73.68C315.27 75.45 316.08 76.25 317.52 76.25C318.96 76.25 319.78 75.45 319.78 73.68V69.18H320.89V73.73C320.89 76.05 319.62 77.27 317.51 77.27C315.4 77.27 314.13 76.05 314.13 73.73ZM315.87 67.75C315.87 67.41 316.13 67.16 316.45 67.16C316.77 67.16 317.03 67.41 317.03 67.75C317.03 68.09 316.77 68.33 316.45 68.33C316.14 68.34 315.87 68.1 315.87 67.75ZM318 67.75C318 67.41 318.26 67.16 318.58 67.16C318.9 67.16 319.16 67.41 319.16 67.75C319.16 68.09 318.9 68.33 318.58 68.33C318.26 68.34 318 68.1 318 67.75Z" fill="#54565A"/>
<path d="M323.23 69.1799H326.6C329.17 69.1799 330.92 70.7999 330.92 73.1799C330.92 75.5599 329.17 77.1799 326.6 77.1799H323.23V69.1799ZM326.53 76.1799C328.51 76.1799 329.77 74.9699 329.77 73.1799C329.77 71.3899 328.5 70.1799 326.53 70.1799H324.37V76.1899H326.53V76.1799Z" fill="#54565A"/>
<path d="M332.59 73.73V69.18H333.73V73.68C333.73 75.45 334.54 76.25 335.98 76.25C337.42 76.25 338.24 75.45 338.24 73.68V69.18H339.35V73.73C339.35 76.05 338.08 77.27 335.97 77.27C333.87 77.27 332.59 76.05 332.59 73.73ZM334.33 67.75C334.33 67.41 334.59 67.16 334.91 67.16C335.23 67.16 335.49 67.41 335.49 67.75C335.49 68.09 335.23 68.33 334.91 68.33C334.6 68.34 334.33 68.1 334.33 67.75ZM336.46 67.75C336.46 67.41 336.72 67.16 337.04 67.16C337.36 67.16 337.62 67.41 337.62 67.75C337.62 68.09 337.36 68.33 337.04 68.33C336.72 68.34 336.46 68.1 336.46 67.75Z" fill="#54565A"/>
<path d="M347.03 77.1799L345.31 74.7199C345.15 74.7299 344.98 74.7399 344.81 74.7399H342.83V77.1699H341.69V69.1799H344.81C346.89 69.1799 348.15 70.2299 348.15 71.9699C348.15 73.1999 347.51 74.0899 346.39 74.4899L348.29 77.1699H347.03V77.1799ZM347 71.9699C347 70.8299 346.23 70.1799 344.77 70.1799H342.83V73.7799H344.77C346.23 73.7699 347 73.1099 347 71.9699Z" fill="#54565A"/>
<path d="M349.99 69.1799H351.13V76.1799H355.46V77.1699H349.99V69.1799Z" fill="#54565A"/>
<path d="M356.56 73.73V69.18H357.7V73.68C357.7 75.45 358.51 76.25 359.95 76.25C361.39 76.25 362.21 75.45 362.21 73.68V69.18H363.32V73.73C363.32 76.05 362.05 77.27 359.94 77.27C357.84 77.27 356.56 76.05 356.56 73.73ZM358.31 67.75C358.31 67.41 358.57 67.16 358.89 67.16C359.21 67.16 359.47 67.41 359.47 67.75C359.47 68.09 359.21 68.33 358.89 68.33C358.57 68.34 358.31 68.1 358.31 67.75ZM360.44 67.75C360.44 67.41 360.7 67.16 361.02 67.16C361.34 67.16 361.6 67.41 361.6 67.75C361.6 68.09 361.34 68.33 361.02 68.33C360.7 68.34 360.44 68.1 360.44 67.75Z" fill="#54565A"/>
<path d="M371.2 73.1299H372.3V76.2499C371.5 76.9199 370.39 77.2699 369.27 77.2699C366.81 77.2699 365.01 75.5499 365.01 73.1799C365.01 70.8199 366.81 69.0899 369.29 69.0899C370.56 69.0899 371.63 69.5099 372.36 70.3199L371.65 71.0299C370.99 70.3899 370.23 70.1099 369.33 70.1099C367.48 70.1099 366.14 71.3999 366.14 73.1799C366.14 74.9399 367.48 76.2499 369.32 76.2499C369.99 76.2499 370.62 76.0999 371.19 75.7399V73.1299H371.2ZM367.3 67.0499H368.04C368.06 67.6099 368.54 67.9599 369.15 67.9599C369.76 67.9599 370.23 67.6099 370.26 67.0499H371C370.97 68.0099 370.18 68.5999 369.15 68.5999C368.12 68.5999 367.33 68.0099 367.3 67.0499Z" fill="#54565A"/>
<path d="M374.41 73.73V69.18H375.55V73.68C375.55 75.45 376.36 76.25 377.8 76.25C379.24 76.25 380.06 75.45 380.06 73.68V69.18H381.17V73.73C381.17 76.05 379.9 77.27 377.79 77.27C375.69 77.27 374.41 76.05 374.41 73.73ZM376.16 67.75C376.16 67.41 376.42 67.16 376.74 67.16C377.06 67.16 377.32 67.41 377.32 67.75C377.32 68.09 377.06 68.33 376.74 68.33C376.42 68.34 376.16 68.1 376.16 67.75ZM378.28 67.75C378.28 67.41 378.54 67.16 378.86 67.16C379.18 67.16 379.44 67.41 379.44 67.75C379.44 68.09 379.18 68.33 378.86 68.33C378.54 68.34 378.28 68.1 378.28 67.75Z" fill="#54565A"/>
</svg>
